<svg id="Layer_1" data-name="Layer 1" xmlns="http://www.w3.org/2000/svg" viewBox="0 0 363.2 82.71"><defs><style>.cls-1{fill:#293edd;}.cls-2{fill:#00cfeb;}</style></defs><path class="cls-1" d="M18.54,40.69H12.21v24H0V2.38H24.34c12.13,0,19.87,8.34,19.87,19.15A17.68,17.68,0,0,1,30.94,39.2L44.3,64.69H30.76Zm3.52-10.45c6.15,0,9.72-3.52,9.72-8.64,0-5.27-3.61-8.71-9.72-8.71H12.21V30.24Z"/><path class="cls-1" d="M56.22,0a7.16,7.16,0,1,1-.11,0Zm-5.8,64.69V21.49H62.11v43.2Z"/><path class="cls-1" d="M132.19,64.69H120.52V1.08H132.2v24c2.81-3.34,7.56-4.75,11.7-4.75,11,0,16.08,7.65,16.08,17.14V64.69H148.27V39.46c0-4.83-2.36-8.64-8-8.64-4.93,0-7.83,3.68-8.09,8.43Z"/><path class="cls-1" d="M184.09,21.45h8.7V31.81h-8.7V49.92c0,3.78,1.76,5,5.1,5a17.37,17.37,0,0,0,3.6-.35V64.3a17.39,17.39,0,0,1-6.59,1.08c-8.44,0-13.71-5-13.71-13.36V31.81h-7.83V21.45h2.16c4.57,0,6.68-3,6.68-6.86V8.52h10.55Z"/><path class="cls-1" d="M101.08,21.45v5.09h0c-1.31-2.53-4.5-5.14-9.87-5.75a22.16,22.16,0,0,0-2.44-.13,19.53,19.53,0,0,0-2.16.11,19.32,19.32,0,0,0-9.4,3.55,18.92,18.92,0,0,0-2.92,2.59c-.45.49-.87,1-1.27,1.51A22.06,22.06,0,0,0,68.7,41.75c0,12.13,8.64,21,20.12,21a6.06,6.06,0,0,0,1.08-.06c5.6-.3,9.28-2.84,10.93-5.48h0v3.17c0,8.34-4.14,12-11.51,12-4.85,0-8.35-2.63-9.72-6.48a7.46,7.46,0,0,1-.26-.84c-.06-.28-.13-.58-.18-.88L68.6,67.06c1.23,8.26,9.13,15.65,21,15.65a27.85,27.85,0,0,0,9.32-1.48,19.33,19.33,0,0,0,6.91-4.13c4.51-4.31,6.48-10.5,6.48-17.07V21.45Zm-.28,22.67a12.24,12.24,0,0,1-.56,2.16,10.48,10.48,0,0,1-.9,1.88,9.4,9.4,0,0,1-1.91,2.26,8.79,8.79,0,0,1-1.62,1.08,9.69,9.69,0,0,1-1.86.76,12,12,0,0,1-2,.4H90.82a9.71,9.71,0,0,1-9.19-5.4c-.15-.32-.29-.65-.41-1a12.91,12.91,0,0,1-.78-4.56c0-5,2.58-8.64,6.31-10.14a11.15,11.15,0,0,1,2-.57,12.13,12.13,0,0,1,2.16-.19,9.8,9.8,0,0,1,8.45,4.51,11.79,11.79,0,0,1,1.75,6.39,14.32,14.32,0,0,1-.32,2.43Z"/><path class="cls-2" d="M221.23,39.19h-9.31V64.68h-8.7V2.35h23.46c11.77,0,19.07,8.28,19.07,18.56,0,9-5.71,15.9-15.12,17.66l14.86,26.11h-10Zm3.86-7.74c7,0,11.79-4.13,11.79-10.54,0-6.6-4.76-10.8-11.79-10.8H211.92V31.45Z"/><path class="cls-2" d="M256,.42a5.94,5.94,0,1,1-5.87,6v0a5.93,5.93,0,0,1,5.88-6Zm-4,64.26V22.4h8.17V64.68Z"/><path class="cls-2" d="M354.05,52.63c-2.37,7.48-9.14,13.36-19,13.36-11.33,0-21.26-8.26-21.26-22.59,0-13.27,9.58-22.32,20.21-22.32,13,0,20.31,9,20.31,22.15a19.26,19.26,0,0,1-.18,2.63H322.32c.18,7.56,5.62,12.83,12.74,12.83,6.86,0,10.29-3.78,11.88-8.52ZM345.7,39.19c-.18-6.07-4.13-10.8-11.6-10.8a11.36,11.36,0,0,0-11.51,10.8Z"/><path class="cls-2" d="M352.85,14.37v5.4h-1.3v-5.4h-2.09V13.15h5.46v1.22Z"/><path class="cls-2" d="M361.94,19.75V15.12L360,19.74H359l-1.89-4.62v4.59h-1.23V13.15h1.69l2,4.77,1.93-4.77h1.75v6.6Z"/><path class="cls-2" d="M299.88,58.31c-2,4-6.48,7.56-13.09,7.56-12.4,0-20-9.84-20-22.41,0-12,8.08-22.15,20-22.15,7.47,0,11.51,3.69,13,7.12V1.08h8.17V56.86a64,64,0,0,0,.45,7.82h-8.05a35.29,35.29,0,0,1-.44-5.72Zm-12.3.26c7.56,0,12.21-6.58,12.21-15.29s-4.57-14.67-12.13-14.67-12.48,6.15-12.48,14.85,4.48,15.06,12.4,15.06Z"/></svg>